<svg xmlns="http://www.w3.org/2000/svg" width="33.182" height="32.97" viewBox="0 0 33.182 32.97">
  <g id="mask" transform="translate(0 -0.15)">
    <path id="Path_15" data-name="Path 15" d="M33.182,23.566a3.934,3.934,0,0,1-3.615,3.922c-.106.009-.213.013-.32.013a3.9,3.9,0,0,1-.8-.082H4.739a3.9,3.9,0,0,1-.8.082h0a3.935,3.935,0,0,1-.367-7.852,3.61,3.61,0,0,1,.369-.018,3.981,3.981,0,0,1,.488.03H28.759a3.981,3.981,0,0,1,.488-.03,3.935,3.935,0,0,1,3.936,3.935Z" transform="translate(0 -5.728)" fill="#ffd0a6"/>
    <path id="Path_16" data-name="Path 16" d="M31.416,19.692v4.985a11,11,0,0,1-.364,2.812c-.106.009-.213.013-.32.013a3.9,3.9,0,0,1-.8-.082H6.224a3.9,3.9,0,0,1-.8.082h0a11.027,11.027,0,0,1-.367-2.825V19.65a3.61,3.61,0,0,1,.369-.018,3.982,3.982,0,0,1,.488.03H30.244a3.982,3.982,0,0,1,.488-.03A3.92,3.92,0,0,1,31.416,19.692Z" transform="translate(-1.485 -5.728)" fill="#e8b182"/>
    <path id="Path_17" data-name="Path 17" d="M42.8,25.262a.508.508,0,0,1-.466-.306c-.4-.926-1.546-.643-1.675-.608a.508.508,0,0,1-.275-.978,2.367,2.367,0,0,1,2.882,1.181.508.508,0,0,1-.465.71Z" transform="translate(-11.765 -6.797)" fill="#d6996b"/>
    <path id="Path_18" data-name="Path 18" d="M3.274,25.262a.508.508,0,0,1-.465-.711,2.367,2.367,0,0,1,2.882-1.181.508.508,0,0,1-.276.978c-.131-.036-1.272-.317-1.675.608A.508.508,0,0,1,3.274,25.262Z" transform="translate(-0.813 -6.797)" fill="#d6996b"/>
    <path id="Path_19" data-name="Path 19" d="M30.732,12.16v8.179a12.01,12.01,0,0,1-24.02,0V12.16a12.01,12.01,0,0,1,24.02,0Z" transform="translate(-1.974 0)" fill="#e8b182"/>
    <path id="Path_20" data-name="Path 20" d="M32.631,12.251v8.179A12.013,12.013,0,0,1,22.9,32.222a12.013,12.013,0,0,1-9.729-11.793V12.251A12.014,12.014,0,0,1,22.9.457a12.015,12.015,0,0,1,9.729,11.794Z" transform="translate(-3.873 -0.09)" fill="#ffd0a6"/>
    <path id="Path_21" data-name="Path 21" d="M30.732,12.16v1.773C16.514,13.916,11.787,8.1,11.787,8.1c0,2.416-2.416,4.964-5.075,5.833V12.16a12.01,12.01,0,1,1,24.02,0Z" transform="translate(-1.973)" fill="#5b5b68"/>
    <path id="Path_22" data-name="Path 22" d="M21,.367a12.033,12.033,0,0,0-9.08,7.886c-.092-.1-.136-.152-.136-.152,0,2.416-2.416,4.964-5.075,5.833V12.16A12.02,12.02,0,0,1,21,.367Z" transform="translate(-1.973)" fill="#40404c"/>
    <g id="Group_8" data-name="Group 8" transform="translate(11.009 15.536)">
      <g id="Group_7" data-name="Group 7">
        <path id="Path_23" data-name="Path 23" d="M16.1,25.235a.508.508,0,0,1-.508-.508V22.452a.508.508,0,1,1,1.016,0v2.275A.508.508,0,0,1,16.1,25.235Z" transform="translate(-15.593 -21.944)" fill="#40404c"/>
        <path id="Path_24" data-name="Path 24" d="M30.923,25.235a.508.508,0,0,1-.508-.508V22.452a.508.508,0,1,1,1.016,0v2.275A.508.508,0,0,1,30.923,25.235Z" transform="translate(-19.951 -21.944)" fill="#40404c"/>
      </g>
    </g>
    <path id="Path_25" data-name="Path 25" d="M38.827,20.738v1.883L35.18,28.313a.508.508,0,0,1-.855-.548Z" transform="translate(-10.068 -6.053)" fill="#e4e4ef"/>
    <path id="Path_26" data-name="Path 26" d="M10.872,28.172a.507.507,0,0,1-.7-.154l-3.458-5.4V20.738l4.313,6.733A.507.507,0,0,1,10.872,28.172Z" transform="translate(-1.974 -6.053)" fill="#cacadb"/>
    <path id="Path_27" data-name="Path 27" d="M28.976,28.264v5.053l-3.141,5.6a4.205,4.205,0,0,1-3.667,2.147H17.781a4.206,4.206,0,0,1-3.667-2.147l-3.141-5.6V28.264l3.385-.414,5.617-.687Z" transform="translate(-3.226 -7.942)" fill="#e4e4ef"/>
    <path id="Path_28" data-name="Path 28" d="M17.781,41.348A4.206,4.206,0,0,1,14.114,39.2l-3.141-5.6V28.551l3.385-.414C14.358,32.744,14.969,39.891,17.781,41.348Z" transform="translate(-3.226 -8.228)" fill="#cacadb"/>
  </g>
</svg>
