<svg xmlns="http://www.w3.org/2000/svg" xmlns:xlink="http://www.w3.org/1999/xlink" width="32" height="32" viewBox="0 0 32 32">
  <defs>
    <clipPath id="clip-path">
      <rect id="Rectangle_9" data-name="Rectangle 9" width="32" height="32" transform="translate(242 530.735)" fill="#fff"/>
    </clipPath>
  </defs>
  <g id="Mask_Group_1" data-name="Mask Group 1" transform="translate(-242 -530.735)" clip-path="url(#clip-path)">
    <g id="strong" transform="translate(246.555 531)">
      <path id="SVGCleanerId_0" d="M29.934,21.488l-.05-.075.076.056.015-1.191a30.811,30.811,0,0,0-2.2-11A37.971,37.971,0,0,0,25.12,3.706a2.206,2.206,0,0,0-1.309-1.6C22.625,1.322,20.105,0,18.138,0a2.8,2.8,0,0,0-2,.7c-1.66,1.576-1.933,2.641-1.87,3.257a1.411,1.411,0,0,0,.54.989l-.026.105c-.076.311,0,.95,1.375,1.743a3.6,3.6,0,0,0,1.832.531,4.8,4.8,0,0,0,2.1-.6c.091-.044.18-.086.266-.125a.668.668,0,0,1,.578-.022,1.51,1.51,0,0,1,.636.89c-.079.446-1.2,6.9-.3,10.41l0,.011a6.753,6.753,0,0,0-2.816-.616,7.507,7.507,0,0,0-1.876.247A8.6,8.6,0,0,0,13.8,18.8a4.45,4.45,0,0,0-1.935-.4,6.8,6.8,0,0,0-1.29.131l-.58.113.091.584c.359,2.3,1.547,8.042,4.822,11.575l.274.3.38-.134a8.949,8.949,0,0,0,2.289-1.18l1.01-.732c.116.005.284.011.493.011,1.617,0,5.526-.325,7.108-3.323a5.251,5.251,0,0,0,1.029.1,2.644,2.644,0,0,0,2.75-1.664A2.974,2.974,0,0,0,29.934,21.488Z" transform="translate(-7.8)" fill="#fccc9a"/>
      <g id="Group_9" data-name="Group 9" transform="translate(2.193)">
        <path id="SVGCleanerId_0_1_" d="M29.934,21.488l-.05-.075.076.056.015-1.191a30.811,30.811,0,0,0-2.2-11A37.971,37.971,0,0,0,25.12,3.706a2.206,2.206,0,0,0-1.309-1.6C22.625,1.322,20.105,0,18.138,0a2.8,2.8,0,0,0-2,.7c-1.66,1.576-1.933,2.641-1.87,3.257a1.411,1.411,0,0,0,.54.989l-.026.105c-.076.311,0,.95,1.375,1.743a3.6,3.6,0,0,0,1.832.531,4.8,4.8,0,0,0,2.1-.6c.091-.044.18-.086.266-.125a.668.668,0,0,1,.578-.022,1.51,1.51,0,0,1,.636.89c-.079.446-1.2,6.9-.3,10.41l0,.011a6.753,6.753,0,0,0-2.816-.616,7.507,7.507,0,0,0-1.876.247A8.6,8.6,0,0,0,13.8,18.8a4.45,4.45,0,0,0-1.935-.4,6.8,6.8,0,0,0-1.29.131l-.58.113.091.584c.359,2.3,1.547,8.042,4.822,11.575l.274.3.38-.134a8.949,8.949,0,0,0,2.289-1.18l1.01-.732c.116.005.284.011.493.011,1.617,0,5.526-.325,7.108-3.323a5.251,5.251,0,0,0,1.029.1,2.644,2.644,0,0,0,2.75-1.664A2.974,2.974,0,0,0,29.934,21.488Z" transform="translate(-9.993)" fill="#fccc9a"/>
      </g>
      <g id="Group_10" data-name="Group 10" transform="translate(6.457 0.153)" opacity="0.19">
        <path id="Path_29" data-name="Path 29" d="M16.317,4.033a1.411,1.411,0,0,0,.54.989l-.026.105c-.076.311,0,.95,1.375,1.743a3.6,3.6,0,0,0,1.832.531,4.8,4.8,0,0,0,2.1-.6c.091-.044.18-.086.266-.125l.015-.006a3.516,3.516,0,0,1-.787.092,3.924,3.924,0,0,1-1.985-.59,3.655,3.655,0,0,1-1.312-1.061,1.2,1.2,0,0,0,.074-.742,1.214,1.214,0,0,0-.594-.81.681.681,0,0,1-.244-.477c-.027-.266.027-1.186,1.559-2.853a2.426,2.426,0,0,0-.944.55C16.527,2.352,16.254,3.417,16.317,4.033Z" transform="translate(-16.309 -0.226)" fill="#202121"/>
      </g>
      <g id="Group_11" data-name="Group 11" transform="translate(6.475 22.164)" opacity="0.19">
        <path id="Path_30" data-name="Path 30" d="M19.181,35.9a11.962,11.962,0,0,1-2.447-.239.511.511,0,0,1,.226-1h0c.048.011,4.868,1.056,7.654-1.694a.511.511,0,1,1,.718.728A8.648,8.648,0,0,1,19.181,35.9Z" transform="translate(-16.336 -32.825)" fill="#202121"/>
      </g>
      <g id="Group_12" data-name="Group 12" transform="translate(16.897 9.305)" opacity="0.19">
        <path id="Path_31" data-name="Path 31" d="M33.013,23.457a.5.5,0,0,1-.092-.008.511.511,0,0,1-.412-.594,16.889,16.889,0,0,0-.7-8.372.511.511,0,1,1,.949-.38,17.682,17.682,0,0,1,.76,8.935A.512.512,0,0,1,33.013,23.457Z" transform="translate(-31.77 -13.781)" fill="#202121"/>
      </g>
      <g id="Group_13" data-name="Group 13" transform="translate(2.258 6.518)">
        <path id="Path_32" data-name="Path 32" d="M21.715,27.31h0c.133.034.252.069.357.1.2.032.431.016.5-.192.128-.4-1.276-1.026-1.276-1.026a6.753,6.753,0,0,0-2.816-.616,7.507,7.507,0,0,0-1.876.247,8.6,8.6,0,0,0-2.774,1.281,4.45,4.45,0,0,0-1.935-.4,6.8,6.8,0,0,0-1.29.131l-.515.1.025.162c.077.492.191,1.141.356,1.891a.477.477,0,0,0,.267-.022,3.7,3.7,0,0,1,1.333-.246A4.024,4.024,0,0,1,13.8,29.1a.477.477,0,0,0,.545-.063,7.644,7.644,0,0,1,5.212-2.009,8.7,8.7,0,0,1,2.163.279Z" transform="translate(-10.09 -14.825)" fill="#202121" opacity="0.19"/>
        <path id="Path_33" data-name="Path 33" d="M25.9,9.658h0a.589.589,0,0,1,.2.053,1.51,1.51,0,0,1,.636.89c-.079.443-1.176,6.9-.3,10.421l.04.019h0l.023.011.005,0,.007,0c.039.019.092.044.153.075h0l.072.037h0c.052.027.107.056.164.088l0,0a1.951,1.951,0,0,1,.79.645h0l0,.011.015,0c-1.244-3.108-.144-8.952.094-10.69S25.9,9.658,25.9,9.658Z" transform="translate(-15.224 -9.654)" fill="#202121" opacity="0.19"/>
      </g>
      <path id="Path_34" data-name="Path 34" d="M14.242,39.466l-.212-.229A18.44,18.44,0,0,1,10.2,31.855a30.7,30.7,0,0,1-.985-4.635L9.194,27.1a.545.545,0,0,0-.541-.476H7.291a.545.545,0,0,0-.545.545V39.837a.546.546,0,0,0,.545.545h6.551a.545.545,0,0,0,.4-.916Z" transform="translate(-6.746 -8.647)" fill="#485d6d"/>
      <path id="Path_35" data-name="Path 35" d="M7.758,33.075a34.765,34.765,0,0,1-1.013-4.552v11.93A.546.546,0,0,0,7.291,41h4.467A21.1,21.1,0,0,1,7.758,33.075Z" transform="translate(-6.746 -9.264)" fill="#202121" opacity="0.19"/>
    </g>
  </g>
</svg>
